<svg data-v-1084b650="" xmlns="http://www.w3.org/2000/svg" viewBox="0 0 300 300"><!----> <!----> <rect data-v-1084b650="" fill="#ffffff" x="0" y="0" width="300px" height="300px" class="logo-background-square"></rect> <!----> <g data-v-1084b650="" id="c680e2f5-484b-5cc8-0e46-485b4e3302c0" fill="#000000" transform="matrix(3.999999999999999,0,0,3.999999999999999,33.10000306367877,178.34000027179718)"><path d="M6.52 0L5.24 0L3.84 9.28L3.54 9.28L2.17 0L0.29 0L0.29 1.22L1.06 1.22L2.44 10.56L4.93 10.56ZM5.87 0.52L4.44 10.00L2.93 10.00L1.55 0.66L0.83 0.66L0.83 0.53L1.68 0.53L3.04 9.87L4.33 9.87L5.74 0.52ZM9.23 10.50L9.23 0C8.13 0 9.04 0 7.95 0L7.95 10.50ZM8.53 0.52L8.65 0.52L8.65 9.98L8.53 9.98ZM12.56 9.23L12.56 1.32L14.10 1.32L14.92 2.13L14.92 8.40L14.10 9.23ZM11.28 10.50C12.39 10.50 13.51 10.50 14.63 10.50L16.20 8.92L16.20 1.61L14.63 0.04L11.28 0.04ZM11.86 0.62L14.39 0.62L15.62 1.85L15.62 8.69L14.39 9.93L11.86 9.93ZM11.98 0.74L11.98 9.80L14.34 9.80L15.50 8.64L15.50 1.90L14.34 0.74ZM19.36 4.68L19.36 1.29L22.39 1.29L22.39 0.01C20.69 0.01 19.78 0.01 18.09 0.01L18.09 10.50L22.58 10.50L22.58 9.23L19.36 9.23L19.36 5.95L21.90 5.95L21.90 4.68ZM21.81 0.59L21.81 0.71L18.79 0.71L18.79 5.24L21.36 5.24L21.36 5.38L18.79 5.38L18.79 9.80L22.01 9.80L22.01 9.93L18.66 9.93L18.66 0.59ZM28.46 1.72L27.27 0.55L25.84 0.55L24.67 1.72L24.67 8.61L25.84 9.87L27.27 9.87L28.46 8.61ZM29.15 1.46L27.57-0.13L25.56-0.13L23.98 1.46L23.98 8.86L25.55 10.54L27.57 10.54L29.15 8.86ZM28.59 8.65L27.33 10.00L25.79 10.00L24.54 8.65L24.54 1.68L25.79 0.42L27.33 0.42L28.59 1.68ZM27.02 9.28L26.10 9.28L25.24 8.37L25.24 1.97L26.08 1.13L27.03 1.13L27.87 1.97L27.87 8.37ZM36.99 10.49L38.26 10.49L38.26 0.01L35.73 0.01L35.14 4.17L34.78 7.45L34.73 7.45L34.36 4.12L33.77 0.01C32.63 0.01 31.61 0.01 30.48 0.01L30.48 1.26L31.23 1.26L31.23 10.49L32.51 10.49L32.51 1.26L32.66 1.26L33.96 9.69L35.57 9.69L36.83 1.26L36.99 1.26ZM31.93 1.26L31.93 9.95L31.81 9.95L31.81 1.26ZM33.15 0.69C32.37 0.69 31.81 0.69 31.01 0.69L31.01 0.56L33.26 0.56L34.54 9.02L34.99 9.02L36.23 0.56L37.69 0.56L37.69 9.95L37.56 9.95L37.56 0.69L36.34 0.69L35.10 9.13C34.87 9.13 34.65 9.13 34.43 9.13ZM39.52 10.50L40.81 10.50L41.22 7.77L43.40 7.77L43.81 10.50L45.09 10.50L43.54 0.01L41.08 0.01ZM43.22 6.50L41.40 6.50L42.17 1.29L42.43 1.29ZM43.04 0.59L44.44 9.97L44.31 9.97L43.89 7.20L40.71 7.20L40.31 9.97L40.18 9.97C40.60 7.07 41.15 3.47 41.58 0.59ZM41.68 0.71L40.74 7.07L43.88 7.07L42.94 0.71ZM47.52 7.03L46.26 7.03L46.26 8.95L47.80 10.57L49.80 10.57L51.34 8.95L51.34 6.12L47.59 3.49L47.59 2.03L48.36 1.20L49.24 1.20L50.02 2.03L50.02 3.12L51.28 3.12L51.28 1.51L49.78-0.06L47.82-0.06L46.33 1.51L46.33 4.14L50.09 6.78L50.09 8.44L49.27 9.31L48.34 9.31L47.52 8.44ZM46.94 7.56L46.94 8.67L48.09 9.87L49.52 9.87L50.67 8.67L50.67 6.48L46.89 3.85L46.89 1.76L48.06 0.52L49.55 0.52L50.72 1.76L50.72 2.58L50.60 2.58L50.60 1.81L49.49 0.64L48.12 0.64L47.01 1.81L47.01 3.79L50.78 6.41L50.78 8.72L49.57 10.00L48.03 10.00L46.82 8.72L46.82 7.56ZM54.52 10.50L54.52 5.88L56.88 5.88L56.88 10.50L58.16 10.50L58.16 0.04L56.88 0.04L56.88 4.66L54.52 4.66L54.52 0.04L53.24 0.04L53.24 10.50ZM53.82 0.62L53.94 0.62L53.94 5.21L57.46 5.21L57.46 0.57L57.58 0.57L57.58 9.97L57.46 9.97L57.46 5.33L53.94 5.33L53.94 9.97L53.82 9.97Z"></path></g> <linearGradient data-v-1084b650="" gradientTransform="rotate(25)" id="b276def4-30b8-acb1-aa56-a711f93a59be" x1="0%" y1="0%" x2="100%" y2="0%"><stop data-v-1084b650="" offset="0%" style="stop-color: rgb(47, 134, 50); stop-opacity: 1;"></stop> <stop data-v-1084b650="" offset="100%" style="stop-color: rgb(190, 255, 127); stop-opacity: 1;"></stop></linearGradient> <g data-v-1084b650="" id="f3b3728b-e549-c224-5096-03d15a1bb225" fill="url(#b276def4-30b8-acb1-aa56-a711f93a59be)" stroke="none" transform="matrix(0.28533332824707025,0,0,0.28533332824707025,107.20000076293945,79.38000106811523)"><svg xmlns="http://www.w3.org/2000/svg" xmlns:xlink="http://www.w3.org/1999/xlink" version="1.1" viewBox="0 0 96 96" x="0px" y="0px"><path d="M34 68.476c-0.344 0-0.692-0.084-1-0.264-0.62-0.36-1-1.016-1-1.736v-36.952c0-0.716 0.38-1.376 1-1.732 0.616-0.36 1.384-0.36 2 0l32 18.476c0.62 0.356 1 1.016 1 1.732 0 0.724-0.38 1.384-1 1.74l-32 18.476c-0.308 0.176-0.656 0.26-1 0.26zM36 32.988v30.024l26-15.012-26-15.012z"></path><path d="M92 4h-88c-1.104 0-2-0.9-2-2s0.896-2 2-2h88c1.1 0 2 0.9 2 2s-0.9 2-2 2z" fill="#000000"></path><path d="M92 96h-88c-1.104 0-2-0.9-2-2s0.896-2 2-2h88c1.1 0 2 0.9 2 2s-0.9 2-2 2z" fill="#000000"></path><path d="M8 12h-4c-1.104 0-2-0.9-2-2s0.896-2 2-2h4c1.104 0 2 0.9 2 2s-0.896 2-2 2z" fill="#000000"></path><path d="M20 12h-4c-1.104 0-2-0.9-2-2s0.896-2 2-2h4c1.104 0 2 0.9 2 2s-0.896 2-2 2z" fill="#000000"></path><path d="M32 12h-4c-1.104 0-2-0.9-2-2s0.896-2 2-2h4c1.104 0 2 0.9 2 2s-0.896 2-2 2z" fill="#000000"></path><path d="M44 12h-4c-1.104 0-2-0.9-2-2s0.896-2 2-2h4c1.104 0 2 0.9 2 2s-0.896 2-2 2z" fill="#000000"></path><path d="M56 12h-4c-1.1 0-2-0.9-2-2s0.9-2 2-2h4c1.1 0 2 0.9 2 2s-0.9 2-2 2z" fill="#000000"></path><path d="M68 12h-4c-1.1 0-2-0.9-2-2s0.9-2 2-2h4c1.1 0 2 0.9 2 2s-0.9 2-2 2z" fill="#000000"></path><path d="M80 12h-4c-1.1 0-2-0.9-2-2s0.9-2 2-2h4c1.1 0 2 0.9 2 2s-0.9 2-2 2z" fill="#000000"></path><path d="M92 12h-4c-1.1 0-2-0.9-2-2s0.9-2 2-2h4c1.1 0 2 0.9 2 2s-0.9 2-2 2z" fill="#000000"></path><path d="M8 88h-4c-1.104 0-2-0.9-2-2s0.896-2 2-2h4c1.104 0 2 0.9 2 2s-0.896 2-2 2z" fill="#000000"></path><path d="M20 88h-4c-1.104 0-2-0.9-2-2s0.896-2 2-2h4c1.104 0 2 0.9 2 2s-0.896 2-2 2z" fill="#000000"></path><path d="M32 88h-4c-1.104 0-2-0.9-2-2s0.896-2 2-2h4c1.104 0 2 0.9 2 2s-0.896 2-2 2z" fill="#000000"></path><path d="M44 88h-4c-1.104 0-2-0.9-2-2s0.896-2 2-2h4c1.104 0 2 0.9 2 2s-0.896 2-2 2z" fill="#000000"></path><path d="M56 88h-4c-1.1 0-2-0.9-2-2s0.9-2 2-2h4c1.1 0 2 0.9 2 2s-0.9 2-2 2z" fill="#000000"></path><path d="M68 88h-4c-1.1 0-2-0.9-2-2s0.9-2 2-2h4c1.1 0 2 0.9 2 2s-0.9 2-2 2z" fill="#000000"></path><path d="M80 88h-4c-1.1 0-2-0.9-2-2s0.9-2 2-2h4c1.1 0 2 0.9 2 2s-0.9 2-2 2z" fill="#000000"></path><path d="M92 88h-4c-1.1 0-2-0.9-2-2s0.9-2 2-2h4c1.1 0 2 0.9 2 2s-0.9 2-2 2z" fill="#000000"></path><path d="M18 76h-14c-1.104 0-2-0.9-2-2s0.896-2 2-2h12v-48h-12c-1.104 0-2-0.9-2-2s0.896-2 2-2h14c1.104 0 2 0.9 2 2v52c0 1.1-0.896 2-2 2z" fill="#000000"></path><path d="M92 76h-14c-1.1 0-2-0.9-2-2v-52c0-1.1 0.9-2 2-2h14c1.1 0 2 0.9 2 2s-0.9 2-2 2h-12v48h12c1.1 0 2 0.9 2 2s-0.9 2-2 2z" fill="#000000"></path></svg></g></svg>