<svg data-v-1084b650="" xmlns="http://www.w3.org/2000/svg" viewBox="0 0 300 300"><!----> <!----> <rect data-v-1084b650="" fill="#ffffff" x="0" y="0" width="300px" height="300px" class="logo-background-square"></rect> <!----> <linearGradient data-v-1084b650="" gradientTransform="rotate(25)" id="d762ee91-acd4-1f54-3c89-5c613258dce7" x1="0%" y1="0%" x2="100%" y2="0%"><stop data-v-1084b650="" offset="0%" style="stop-color: rgb(47, 134, 50); stop-opacity: 1;"></stop> <stop data-v-1084b650="" offset="100%" style="stop-color: rgb(190, 255, 127); stop-opacity: 1;"></stop></linearGradient> <g data-v-1084b650="" id="e7af4397-394e-4bac-b4e7-f2873aa97669" fill="url(#d762ee91-acd4-1f54-3c89-5c613258dce7)" stroke="none" transform="matrix(0.6999999999999997,0,0,0.6999999999999997,45.00000000000004,45.00000000000004)"><svg xmlns="http://www.w3.org/2000/svg" xmlns:xlink="http://www.w3.org/1999/xlink" version="1.1" viewBox="0 0 96 96" x="0px" y="0px"><path d="M34 68.476c-0.344 0-0.692-0.084-1-0.264-0.62-0.36-1-1.016-1-1.736v-36.952c0-0.716 0.38-1.376 1-1.732 0.616-0.36 1.384-0.36 2 0l32 18.476c0.62 0.356 1 1.016 1 1.732 0 0.724-0.38 1.384-1 1.74l-32 18.476c-0.308 0.176-0.656 0.26-1 0.26zM36 32.988v30.024l26-15.012-26-15.012z"></path><path d="M92 4h-88c-1.104 0-2-0.9-2-2s0.896-2 2-2h88c1.1 0 2 0.9 2 2s-0.9 2-2 2z" fill="#000000"></path><path d="M92 96h-88c-1.104 0-2-0.9-2-2s0.896-2 2-2h88c1.1 0 2 0.9 2 2s-0.9 2-2 2z" fill="#000000"></path><path d="M8 12h-4c-1.104 0-2-0.9-2-2s0.896-2 2-2h4c1.104 0 2 0.9 2 2s-0.896 2-2 2z" fill="#000000"></path><path d="M20 12h-4c-1.104 0-2-0.9-2-2s0.896-2 2-2h4c1.104 0 2 0.9 2 2s-0.896 2-2 2z" fill="#000000"></path><path d="M32 12h-4c-1.104 0-2-0.9-2-2s0.896-2 2-2h4c1.104 0 2 0.9 2 2s-0.896 2-2 2z" fill="#000000"></path><path d="M44 12h-4c-1.104 0-2-0.9-2-2s0.896-2 2-2h4c1.104 0 2 0.9 2 2s-0.896 2-2 2z" fill="#000000"></path><path d="M56 12h-4c-1.1 0-2-0.9-2-2s0.9-2 2-2h4c1.1 0 2 0.9 2 2s-0.9 2-2 2z" fill="#000000"></path><path d="M68 12h-4c-1.1 0-2-0.9-2-2s0.9-2 2-2h4c1.1 0 2 0.9 2 2s-0.9 2-2 2z" fill="#000000"></path><path d="M80 12h-4c-1.1 0-2-0.9-2-2s0.9-2 2-2h4c1.1 0 2 0.9 2 2s-0.9 2-2 2z" fill="#000000"></path><path d="M92 12h-4c-1.1 0-2-0.9-2-2s0.9-2 2-2h4c1.1 0 2 0.9 2 2s-0.9 2-2 2z" fill="#000000"></path><path d="M8 88h-4c-1.104 0-2-0.9-2-2s0.896-2 2-2h4c1.104 0 2 0.9 2 2s-0.896 2-2 2z" fill="#000000"></path><path d="M20 88h-4c-1.104 0-2-0.9-2-2s0.896-2 2-2h4c1.104 0 2 0.9 2 2s-0.896 2-2 2z" fill="#000000"></path><path d="M32 88h-4c-1.104 0-2-0.9-2-2s0.896-2 2-2h4c1.104 0 2 0.9 2 2s-0.896 2-2 2z" fill="#000000"></path><path d="M44 88h-4c-1.104 0-2-0.9-2-2s0.896-2 2-2h4c1.104 0 2 0.9 2 2s-0.896 2-2 2z" fill="#000000"></path><path d="M56 88h-4c-1.1 0-2-0.9-2-2s0.9-2 2-2h4c1.1 0 2 0.9 2 2s-0.9 2-2 2z" fill="#000000"></path><path d="M68 88h-4c-1.1 0-2-0.9-2-2s0.9-2 2-2h4c1.1 0 2 0.9 2 2s-0.9 2-2 2z" fill="#000000"></path><path d="M80 88h-4c-1.1 0-2-0.9-2-2s0.9-2 2-2h4c1.1 0 2 0.9 2 2s-0.9 2-2 2z" fill="#000000"></path><path d="M92 88h-4c-1.1 0-2-0.9-2-2s0.9-2 2-2h4c1.1 0 2 0.9 2 2s-0.9 2-2 2z" fill="#000000"></path><path d="M18 76h-14c-1.104 0-2-0.9-2-2s0.896-2 2-2h12v-48h-12c-1.104 0-2-0.9-2-2s0.896-2 2-2h14c1.104 0 2 0.9 2 2v52c0 1.1-0.896 2-2 2z" fill="#000000"></path><path d="M92 76h-14c-1.1 0-2-0.9-2-2v-52c0-1.1 0.9-2 2-2h14c1.1 0 2 0.9 2 2s-0.9 2-2 2h-12v48h12c1.1 0 2 0.9 2 2s-0.9 2-2 2z" fill="#000000"></path></svg></g></svg>